<svg xmlns="http://www.w3.org/2000/svg" viewBox="0 0 195.03 196.52"><defs><style>.a{fill:#944c8d;}.b{fill:#fbb040;}</style></defs><path class="a" d="M193.87,91.88c-1.2-9.4-2.5-20.1-.4-33.2a14.1,14.1,0,0,0-3.9-12.21,14.4,14.4,0,0,0-11-4,83.38,83.38,0,0,0-53.2,23.11,1,1,0,0,1-1.5-1.3c1.5-2.2,3.2-4.6,5.3-7.2,6.7-8.61,13.4-16.5,17.1-26a12.5,12.5,0,0,0,.8-4.21,11.3,11.3,0,0,0-6.2-10.1c-5.4-2.8-11.6-3.9-18.8-5.3-9.3-1.79-19.9-3.79-31.7-9.89a13.73,13.73,0,0,0-12.8,0,14.43,14.43,0,0,0-7.2,9.2A83.07,83.07,0,0,0,76,68.58a1,1,0,0,1-1.7,1.1c-1.6-2.1-3.4-4.5-5.3-7.3-6.2-9-11.5-17.8-19.4-24.3a11.12,11.12,0,0,0-3.7-2,11.64,11.64,0,0,0-11.6,2.7C30,43.08,27,48.58,23.37,55c-4.6,8.3-9.8,17.8-19.2,27a13.92,13.92,0,0,0,2.6,21.9,83.26,83.26,0,0,0,56.6,12.6,1,1,0,0,1,.5,1.9c-2.5.9-5.3,1.8-8.5,2.8-10.5,3.1-20.5,5.4-29.1,11a12.29,12.29,0,0,0-3.1,2.9,11.39,11.39,0,0,0-1,11.8c2.7,5.4,7.1,10,12.1,15.3,6.5,6.9,13.9,14.8,19.8,26.6a13.73,13.73,0,0,0,10.4,7.6,14.62,14.62,0,0,0,11.2-3.2,83.79,83.79,0,0,0,29.5-50,1,1,0,0,1,2,.1q.15,3.89,0,9c-.3,10.9-1.2,21.2,1.4,31.09a11.91,11.91,0,0,0,1.8,3.8,11.52,11.52,0,0,0,11,4.6c6-.9,11.7-3.6,18.3-6.7,8.6-4.1,18.3-8.6,31.4-10.6a14,14,0,0,0,10.4-7.5,14.44,14.44,0,0,0,.4-11.7,83.82,83.82,0,0,0-38.4-43.5,1,1,0,0,1,.7-1.8c2.5.7,5.3,1.6,8.5,2.8,10.3,3.7,19.8,7.7,30,8.2a11.56,11.56,0,0,0,4.2-.5,11.33,11.33,0,0,0,7.7-9C195.57,105.38,194.77,99.08,193.87,91.88Z"/><circle class="b" cx="102.57" cy="101.08" r="25.9"/></svg>