<svg xmlns="http://www.w3.org/2000/svg" viewBox="0 0 196.56 196.53">
<defs><style>.a{fill:#e6e6e6;}.b{fill:#8dc63f;}</style></defs>
<path class="a" d="M178.47,54.17c-19.8,0-37.6,5.4-50.1,14,8.6-12.5,14-30.3,14-50.1,0-37.9-19.8-4.4-44.1-4.4s-44.1-33.5-44.1,4.4c0,19.8,5.4,37.6,14,50.1-12.5-8.6-30.3-14-50.1-14-37.9,0-4.4,19.8-4.4,44.1s-33.5,44.1,4.4,44.1c19.8,0,37.6-5.4,50.1-14-8.6,12.5-14,30.3-14,50.1,0,37.9,19.8,4.4,44.1,4.4s44.1,33.5,44.1-4.4c0-19.8-5.4-37.6-14-50.1,12.5,8.6,30.3,14,50.1,14,37.9,0,4.4-19.8,4.4-44.1S216.37,54.17,178.47,54.17Z"/>
<circle class="b" cx="98.27" cy="98.27" r="26.6"/>
</svg>