<svg xmlns="http://www.w3.org/2000/svg" viewBox="0 0 187.28 188.02"><defs><style>.a{fill:#e6467b;}.b{fill:#eda8ad;}</style></defs><path class="a" d="M186.64,88.7c-3-16.4.5-20.9.5-20.9s-5.5-1.6-12.7-16.6c-6.9-14.5-21.8-23.3-38.2-11.6,6-19.2-7-30.6-22.9-32.7C96.84,4.7,93.64,0,93.64,0s-3.2,4.7-19.7,6.9C58,9,45,20.4,51,39.6c-16.4-11.7-31.3-2.9-38.2,11.6C5.64,66.2.14,67.8.14,67.8s3.5,4.5.5,20.9c-2.9,15.8,3.9,31.7,24.1,31.9-16.2,12-12.4,28.9-.7,39.9,12.1,11.5,11.9,17.2,11.9,17.2s5.4-1.9,20,6c14.1,7.7,31.3,6.1,37.8-13,6.4,19.1,23.6,20.7,37.8,13,14.6-7.9,20-6,20-6s-.2-5.7,11.9-17.2c11.7-11.1,15.4-27.9-.7-39.9C182.74,120.4,189.54,104.5,186.64,88.7Z"/><circle class="b" cx="93.64" cy="98.2" r="31.8"/><polygon class="b" points="88.64 98.2 93.64 30.9 98.64 98.2 88.64 98.2"/><polygon class="b" points="92.04 103 29.54 77.4 95.14 93.4 92.04 103"/><polygon class="b" points="97.64 101.1 54.04 152.7 89.54 95.3 97.64 101.1"/><polygon class="b" points="97.64 95.3 133.24 152.7 89.54 101.1 97.64 95.3"/><polygon class="b" points="92.04 93.4 157.64 77.4 95.14 103 92.04 93.4"/></svg>