<svg xmlns="http://www.w3.org/2000/svg" viewBox="0 0 196.54 188.58"><defs><style>.a{fill:#a066aa;}.b{fill:#944c8d;}</style></defs><path class="a" d="M176.17,73.08a17.27,17.27,0,0,0-19.3-6.4h0a17.33,17.33,0,0,0,11.9-16.5c-.1-15.8-1.7-41.6-10.1-47.7s-33.4.4-48.4,5.2a17.29,17.29,0,0,0-12,16.4h0a17.29,17.29,0,0,0-12-16.4c-15.1-4.8-40-11.3-48.4-5.2s-9.9,31.8-10.1,47.7a17.07,17.07,0,0,0,11.9,16.5h0a17.27,17.27,0,0,0-19.3,6.4c-9.2,12.9-23.1,34.6-19.9,44.5s27.2,19.3,42.2,24.3a17,17,0,0,0,19.3-6.2h0a17.1,17.1,0,0,0,.1,20.3c9.4,12.7,25.8,32.6,36.2,32.6s26.8-19.9,36.2-32.6a17.1,17.1,0,0,0,.1-20.3h0a17,17,0,0,0,19.3,6.2c15-5,39-14.4,42.2-24.3S185.37,86,176.17,73.08Z"/><path class="b" d="M157.07,104.28a312.8,312.8,0,0,0-41.3-18.7,6.6,6.6,0,0,1-3.2-10,293.33,293.33,0,0,0,23.6-42A295.48,295.48,0,0,0,103.57,69a6.68,6.68,0,0,1-10.5,0,303.3,303.3,0,0,0-32.6-35.4,298.85,298.85,0,0,0,23.6,42,6.72,6.72,0,0,1-3.2,10,288.08,288.08,0,0,0-43.7,20.1,301,301,0,0,0,47.2-9.4,6.65,6.65,0,0,1,8.5,6.2,294.18,294.18,0,0,0,5.6,47.8,300.37,300.37,0,0,0,5.6-48.2,6.63,6.63,0,0,1,8.1-6.3c15.6,3.5,43,7.5,44.9,8.5C156.27,103.88,158.67,105.18,157.07,104.28Z"/><circle class="a" cx="98.17" cy="85.78" r="8.4"/></svg>