<svg xmlns="http://www.w3.org/2000/svg" viewBox="0 0 195.6 185.7"><defs><style>.a{fill:#e6e6e6;}.b{fill:#fbb040;}</style></defs><path class="a" d="M162.1,108.4a59.4,59.4,0,0,0,33.5-27.5,63,63,0,0,1-14.8-9.7A56.7,56.7,0,0,1,187,54.7a59.21,59.21,0,0,0-64.8,9.9A59.32,59.32,0,0,0,111.6,0,58.64,58.64,0,0,1,97.8,11,61.31,61.31,0,0,1,84,0,59.32,59.32,0,0,0,73.4,64.6,59.21,59.21,0,0,0,8.6,54.7a57.8,57.8,0,0,1,6.2,16.5A58.24,58.24,0,0,1,0,80.9a58.76,58.76,0,0,0,33.5,27.5A59.89,59.89,0,0,0,58.2,111a58.36,58.36,0,0,0-18.5,16.6,59,59,0,0,0-10.9,41.9,61.61,61.61,0,0,1,17.7-.8,59.75,59.75,0,0,1,4.7,17,58.85,58.85,0,0,0,36.5-23.3,59.89,59.89,0,0,0,10.1-22.7,59.38,59.38,0,0,0,46.6,46,58.86,58.86,0,0,1,4.7-17,61.77,61.77,0,0,1,17.7.8,59,59,0,0,0-10.9-41.9A58.36,58.36,0,0,0,137.4,111,59.89,59.89,0,0,0,162.1,108.4Z"/><circle class="b" cx="97.9" cy="98.1" r="23.3"/></svg>