<svg xmlns="http://www.w3.org/2000/svg" viewBox="0 0 196.7 194.67"><defs><style>.a{fill:#e6e7e8;}.b{fill:#f7941e;}</style></defs><path class="a" d="M195.25,91c-2.5-3.1-9.2-5.8-18.1-7.6,7.7-4.7,13.1-9.6,14.4-13.3,2.5-7.5-8-9.3-7.3-12.7a14,14,0,0,0-1.3-8.9,13.85,13.85,0,0,0-7.1-5.6c-3.2-1.1.4-11.2-7.3-12.7-3.9-.8-10.8,1.4-18.7,5.8,2.9-8.6,3.9-15.8,2.4-19.4-2.9-7.4-12.1-2-13.8-5a13.51,13.51,0,0,0-6.7-6,14,14,0,0,0-9,.3c-3.2,1.2-6.9-8.8-13.8-5-3.5,1.9-7.3,8-10.6,16.5C95.05,9,91.15,2.77,87.75.87c-6.9-3.8-10.6,6.2-13.8,5a14,14,0,0,0-9-.3,13.51,13.51,0,0,0-6.7,6c-1.7,3-10.9-2.3-13.8,5-1.4,3.7-.4,10.9,2.4,19.4-7.9-4.3-14.8-6.6-18.7-5.8-7.7,1.5-4.1,11.6-7.3,12.7a13.77,13.77,0,0,0-7.1,5.6,14,14,0,0,0-1.3,8.9c.6,3.4-9.9,5.2-7.3,12.7,1.3,3.7,6.6,8.6,14.4,13.3-8.9,1.8-15.6,4.5-18.1,7.6-4.9,6.1,4.3,11.5,2.5,14.4a12.14,12.14,0,0,0,2.9,16.4c2.6,2.2-4.2,10.3,2.5,14.4,3.4,2,10.6,2.3,19.6,1-5.7,7.1-9,13.5-8.9,17.4.2,7.9,10.7,6,11.2,9.4a13.93,13.93,0,0,0,4.2,7.9,13.5,13.5,0,0,0,8.5,2.8c3.4,0,3.4,10.6,11.2,9.4,3.9-.6,9.6-5,15.6-11.8.2,9.1,1.7,16.1,4.3,19.1,5.2,5.9,12.1-2.2,14.7,0a13.78,13.78,0,0,0,8.3,3.3,13.55,13.55,0,0,0,8.3-3.3c2.6-2.2,9.5,5.9,14.7,0,2.6-3,4.1-10,4.3-19.1,6,6.8,11.7,11.2,15.6,11.8,7.8,1.2,7.8-9.5,11.2-9.4a14.13,14.13,0,0,0,8.5-2.8,13.68,13.68,0,0,0,4.2-7.9c.6-3.4,11.1-1.5,11.2-9.4.1-3.9-3.3-10.4-8.9-17.4,9,1.4,16.2,1.1,19.6-1,6.7-4.1-.1-12.3,2.5-14.4a14.09,14.09,0,0,0,4.7-7.6,14,14,0,0,0-1.8-8.8C191,102.47,200.15,97.17,195.25,91Z"/><path class="b" d="M100.55,95.87c9.2,12.1,18.3,24.2,27.5,36.3C117.25,120.47,101.25,106.77,100.55,95.87Z"/><path class="b" d="M100.55,98.77c-10.3,11.1-20.6,22.3-30.9,33.4C79.25,119.47,90,101.27,100.55,98.77Z"/><path class="b" d="M99.25,95.07c14.8,3.4,29.6,6.7,44.4,10.1C127.85,103.17,106.75,103.07,99.25,95.07Z"/><path class="b" d="M96.75,96.57c5.9-14,11.8-28,17.6-42C109.75,69.77,106,90.47,96.75,96.57Z"/><path class="b" d="M96.75,98.07l-13.5-43.5C89.55,69.27,100,87.57,96.75,98.07Z"/><path class="b" d="M99.25,99.47l-45.1,5.7C69.65,101.67,89.45,94.57,99.25,99.47Z"/><path class="b" d="M101.15,97.27c-.7,15.2-1.5,30.3-2.2,45.5C98.15,126.87,94.55,106.07,101.15,97.27Z"/><path class="b" d="M97.75,95.37c13.5-6.9,27-13.9,40.5-20.8C124.85,83.17,108.65,96.67,97.75,95.37Z"/><path class="b" d="M97.75,99.17C85,91,72.25,82.77,59.45,74.47,73.65,81.87,93.45,89.17,97.75,99.17Z"/><circle class="b" cx="98.85" cy="97.27" r="20.4"/></svg>