<svg xmlns="http://www.w3.org/2000/svg" viewBox="0 0 170 196.4"><defs><style>.a{fill:#ffcd05;}.b{fill:#f7941e;}.c{fill:#f1f2f2;}</style></defs><path class="a" d="M108.6,98.2h0a52.06,52.06,0,0,0,42.5-22.1l18.9-27L137.2,52A51.87,51.87,0,0,0,96.8,77.7a52,52,0,0,0,2.1-47.9L85,0,71.1,29.8a51.72,51.72,0,0,0,2.1,47.9A51.69,51.69,0,0,0,32.8,52L0,49.1l18.9,27A51.8,51.8,0,0,0,61.4,98.2h0a52.06,52.06,0,0,0-42.5,22.1L0,147.3l32.8-2.9a51.87,51.87,0,0,0,40.4-25.7,52,52,0,0,0-2.1,47.9L85,196.4l13.9-29.8a51.72,51.72,0,0,0-2.1-47.9h0a51.69,51.69,0,0,0,40.4,25.7l32.8,2.9-18.9-27A51.66,51.66,0,0,0,108.6,98.2Z"/><path class="b" d="M100.9,93.7a129.82,129.82,0,0,0,21.7-17.3A131.48,131.48,0,0,0,96.8,86.5,5.42,5.42,0,0,1,89,82a125.16,125.16,0,0,0-4.2-27.4,131.54,131.54,0,0,0-4.2,27.3,5.42,5.42,0,0,1-7.8,4.5A129.09,129.09,0,0,0,47,76.3,130.09,130.09,0,0,0,68.6,93.6a5.42,5.42,0,0,1,0,9A130.09,130.09,0,0,0,47,119.9a129.09,129.09,0,0,0,25.8-10.1,5.42,5.42,0,0,1,7.8,4.5,131.36,131.36,0,0,0,4.1,27.4,125.07,125.07,0,0,0,4.1-27.4,5.42,5.42,0,0,1,7.8-4.5,129.09,129.09,0,0,0,25.8,10.1,130.85,130.85,0,0,0-21.7-17.3A5.42,5.42,0,0,1,100.9,93.7Z"/><circle class="c" cx="84.9" cy="98.2" r="10"/></svg>