<svg xmlns="http://www.w3.org/2000/svg" viewBox="0 0 196.8 196.8">
<defs><style>.a{fill:#e6e7e8;}.b{fill:#f7941e;}</style></defs>
<path class="a" d="M196.8,98.4c0-12.3-19-22.2-42.3-22.2h-2.4c.6-.5,1.1-1.1,1.7-1.7,16.5-16.5,22.9-37,14.2-45.7S138.9,26.5,122.3,43l-1.7,1.7V42.3c0-23.4-10-42.3-22.2-42.3S76.2,19,76.2,42.3v2.4c-.5-.6-1.1-1.1-1.7-1.7C58,26.5,37.5,20.1,28.8,28.8S26.5,57.9,43,74.5l1.7,1.7H42.3C18.9,76.2,0,86.2,0,98.4s19,22.2,42.3,22.2h2.4c-.6.5-1.1,1.1-1.7,1.7-16.5,16.5-22.9,37-14.2,45.7s29.1,2.3,45.7-14.2l1.7-1.7v2.4c0,23.4,10,42.3,22.2,42.3s22.2-19,22.2-42.3v-2.4c.5.6,1.1,1.1,1.7,1.7,16.5,16.5,37,22.9,45.7,14.2s2.3-29.1-14.2-45.7l-1.7-1.7h2.4C177.8,120.7,196.8,110.7,196.8,98.4Z"/>
<circle class="b" cx="98.5" cy="98.4" r="28.4"/>
</svg>