<svg xmlns="http://www.w3.org/2000/svg" viewBox="0 0 196.69 188.23"><defs><style>.a{fill:#be1e2d;}.b{fill:#9c1421;}</style></defs><path class="a" d="M196.64,89.23c-.9-9.9-13.4-17.9-16.8-19.9,1.6-3.6,7-17.4,1.9-26-2.5-4.1-6.9-6.4-13.4-6.7-13-.7-27.9,8.3-46,27.8a1,1,0,0,1-1.6-1.2c13-23.2,16.9-40.1,12.2-52.3-2.3-6-5.8-9.6-10.5-10.6-9.7-2.2-21.2,7.2-24.1,9.8-2.9-2.6-14.4-12-24.1-9.8-4.7,1.1-8.2,4.6-10.5,10.6-4.7,12.2-.8,29.1,12.2,52.3a1,1,0,0,1-1.6,1.2c-18-19.5-33-28.5-46-27.8-6.4.3-10.9,2.6-13.4,6.7-5.1,8.6.3,22.4,1.9,26-3.4,2-15.9,9.9-16.8,19.9-.4,4.8,1.9,9.3,6.8,13.3,10.1,8.2,27.5,9.8,53.5,4.6a1,1,0,0,1,.6,1.9c-24.1,11.1-37.3,22.6-40.6,35.1-1.7,6.2-.9,11.2,2.3,14.8,6.6,7.5,21.4,6.6,25.3,6.2.8,3.8,4.6,18.2,13.7,22.1a11.49,11.49,0,0,0,4.8,1,18.13,18.13,0,0,0,9.9-3.4c10.9-7.1,17.8-23.1,20.9-49.5a1,1,0,0,1,2,0c3.1,26.4,9.9,42.4,20.9,49.5,5.4,3.5,10.3,4.3,14.8,2.4,9.2-3.9,12.9-18.3,13.7-22.1,3.9.4,18.7,1.3,25.3-6.2,3.2-3.6,3.9-8.6,2.3-14.8-3.4-12.6-16.5-24-40.6-35.1a1,1,0,0,1,.6-1.9c26.1,5.2,43.4,3.6,53.5-4.6C194.74,98.43,197,94,196.64,89.23Z"/><circle class="b" cx="98.34" cy="94.13" r="29.5"/></svg>