<svg xmlns="http://www.w3.org/2000/svg" viewBox="0 0 196.2 196.2"><defs><style>.a{fill:#944c8d;}.b{fill:#e6e7e8;}</style></defs><path class="a" d="M196.2,98.1c0-12.3-3-22.2-26.3-22.2A118.44,118.44,0,0,0,144.2,79a130.21,130.21,0,0,0,20.4-16c16.5-16.5,11.6-25.7,2.9-34.3s-17.8-13.6-34.3,2.9a120.45,120.45,0,0,0-16,20.4,119.17,119.17,0,0,0,3.1-25.7C120.3,2.9,110.3,0,98.1,0S75.9,3,75.9,26.3A118.44,118.44,0,0,0,79,52,130.21,130.21,0,0,0,63,31.6C46.5,15.1,37.3,20,28.7,28.7S15.1,46.5,31.6,63A120.45,120.45,0,0,0,52,79a119.17,119.17,0,0,0-25.7-3.1C2.9,75.9,0,85.9,0,98.1s3,22.2,26.3,22.2A118.44,118.44,0,0,0,52,117.2a130.21,130.21,0,0,0-20.4,16c-16.5,16.5-11.6,25.7-2.9,34.3s17.8,13.6,34.3-2.9a120.45,120.45,0,0,0,16-20.4,119.17,119.17,0,0,0-3.1,25.7c0,23.4,10,26.3,22.2,26.3s22.2-3,22.2-26.3a118.44,118.44,0,0,0-3.1-25.7,130.21,130.21,0,0,0,16,20.4c16.5,16.5,25.7,11.6,34.3,2.9s13.6-17.8-2.9-34.3a120.45,120.45,0,0,0-20.4-16,119.17,119.17,0,0,0,25.7,3.1C193.3,120.4,196.2,110.4,196.2,98.1Z"/><circle class="b" cx="97.9" cy="98.1" r="29.3"/></svg>