<svg xmlns="http://www.w3.org/2000/svg" viewBox="0 0 195.6 185.7"><defs><style>.a{fill:#ec4989;}.b{fill:#b52d65;}</style></defs><path class="a" d="M162.1,108.4a59.4,59.4,0,0,0,33.5-27.5,63,63,0,0,1-14.8-9.7A56.7,56.7,0,0,1,187,54.7a59.21,59.21,0,0,0-64.8,9.9A59.32,59.32,0,0,0,111.6,0,58.64,58.64,0,0,1,97.8,11,61.31,61.31,0,0,1,84,0,59.32,59.32,0,0,0,73.4,64.6,59.21,59.21,0,0,0,8.6,54.7a57.8,57.8,0,0,1,6.2,16.5A58.24,58.24,0,0,1,0,80.9a58.76,58.76,0,0,0,33.5,27.5A59.89,59.89,0,0,0,58.2,111a58.36,58.36,0,0,0-18.5,16.6,59,59,0,0,0-10.9,41.9,61.61,61.61,0,0,1,17.7-.8,59.75,59.75,0,0,1,4.7,17,58.85,58.85,0,0,0,36.5-23.3,59.89,59.89,0,0,0,10.1-22.7,59.38,59.38,0,0,0,46.6,46,58.86,58.86,0,0,1,4.7-17,61.77,61.77,0,0,1,17.7.8,59,59,0,0,0-10.9-41.9A58.36,58.36,0,0,0,137.4,111,58.26,58.26,0,0,0,162.1,108.4Z"/><circle class="b" cx="97.9" cy="98.1" r="23.3"/><path class="b" d="M97.9,98.9a.76.76,0,0,1-.8-.6A38.85,38.85,0,0,1,95.9,88v-.1A46,46,0,0,1,97,82.1c.3-1.3.7-2.6.9-4a31.63,31.63,0,0,0-.8-12.6.82.82,0,1,1,1.6-.4,33.32,33.32,0,0,1,.9,13.3c-.2,1.5-.6,2.9-.9,4.2a33.48,33.48,0,0,0-1.1,5.5,39.53,39.53,0,0,0,1.1,9.8.8.8,0,0,1-.6,1Z"/><path class="b" d="M97.9,98.9a29.5,29.5,0,0,1-11.5-2.7h-.1a42.33,42.33,0,0,1-4.2-2.5A24.72,24.72,0,0,0,75,90.2a16,16,0,0,1-2.1-.5,28.44,28.44,0,0,0-6.3-1,.8.8,0,0,1,0-1.6,30.13,30.13,0,0,1,6.7,1c.7.2,1.4.3,2.1.5A29.83,29.83,0,0,1,83,92.3a40.18,40.18,0,0,0,4.1,2.4A29.16,29.16,0,0,0,98,97.2a.79.79,0,0,1,.8.8A1.06,1.06,0,0,1,97.9,98.9Z"/><path class="b" d="M78.6,125.4a.37.37,0,0,1-.3-.1,1,1,0,0,1-.5-1.1c2.7-6.5,7.3-11.2,12.3-16.1a24.64,24.64,0,0,0,7-10.3.85.85,0,0,1,1.6.6,26.19,26.19,0,0,1-7.4,11c-4.8,4.8-9.4,9.4-11.9,15.5A1,1,0,0,1,78.6,125.4Z"/><path class="b" d="M117.1,125.4c-.2,0-.3-.1-.5-.2a25.54,25.54,0,0,1-7.4-8.9c-1-1.7-1.9-3.5-2.8-5.2-2.5-4.8-4.8-9.3-9.1-12.4a.86.86,0,1,1,1-1.4c4.6,3.3,7.1,8.2,9.6,13l2.7,5.1a24.73,24.73,0,0,0,7,8.4.83.83,0,0,1,.2,1.2A.67.67,0,0,1,117.1,125.4Z"/><path class="b" d="M97.9,98.9a.75.75,0,0,1-.7-.4.8.8,0,0,1,.3-1.1,32.6,32.6,0,0,1,15.4-5,32.47,32.47,0,0,0,13.4-3.6,10.85,10.85,0,0,1,2.8-1.5.85.85,0,1,1,.6,1.6,19.34,19.34,0,0,0-2.4,1.3h-.1A33.27,33.27,0,0,1,113,94a30.82,30.82,0,0,0-14.6,4.8A1.09,1.09,0,0,1,97.9,98.9Z"/><path class="b" d="M126.9,100.2a32.06,32.06,0,0,1-6.8-.7C112,98,105.2,97,98,98.9a.82.82,0,0,1-.4-1.6c7.5-2,14.5-1,22.8.6a30.26,30.26,0,0,0,15.2-.6.82.82,0,1,1,.4,1.6A32.28,32.28,0,0,1,126.9,100.2Z"/><path class="b" d="M97.9,98.9h0a.82.82,0,0,1-.8-.9c.3-7.5,3.7-14.2,7-20.6.6-1.1,1.2-2.2,1.7-3.3a30.51,30.51,0,0,0,3.1-12.3.85.85,0,0,1,1.7.1,32.33,32.33,0,0,1-3.3,13c-.6,1.1-1.1,2.2-1.7,3.4C102.4,84.6,99,91,98.8,98.2A1.11,1.11,0,0,1,97.9,98.9Z"/><path class="b" d="M97.9,98.9a.37.37,0,0,1-.3-.1,39.6,39.6,0,0,1-12.3-7.6l-.1-.1-.1-.1a5.35,5.35,0,0,0-1.3-1.3c-.2-.2-.5-.4-.7-.6L83,89c-4.9-6.1-10.4-10.4-16.3-12.7a.85.85,0,0,1,.6-1.6c6.2,2.4,12,6.9,17,13.2l.5.5a10.61,10.61,0,0,1,1.5,1.5,39.51,39.51,0,0,0,11.8,7.3,1,1,0,0,1,.5,1.1A.73.73,0,0,1,97.9,98.9Z"/><path class="b" d="M67.1,121.4c-.2,0-.3-.1-.5-.2a.83.83,0,0,1-.2-1.2,39.56,39.56,0,0,1,8.5-8c.5-.3,1-.6,1.4-.8a7.46,7.46,0,0,0,1.2-.7l.1-.1,1.3-.6c7.1-3.2,13.7-6.3,18.2-12.4a.86.86,0,1,1,1.4,1c-4.7,6.4-11.9,9.7-18.9,12.9l-1.3.6c-.5.3-.9.5-1.3.7a7.46,7.46,0,0,0-1.2.7,35,35,0,0,0-8.1,7.6A.74.74,0,0,1,67.1,121.4Z"/><path class="b" d="M109.7,135.2a.91.91,0,0,1-.7-.3c-3.8-5.1-5.2-11.5-5.9-16.5v-.1c-.7-8.6-2.5-14.7-5.9-19.8a.86.86,0,1,1,1.4-1c3.6,5.3,5.5,11.7,6.2,20.5.7,4.8,2,10.9,5.6,15.7a.83.83,0,0,1-.2,1.2A.91.91,0,0,1,109.7,135.2Z"/><path class="b" d="M89.3,100a71.2,71.2,0,0,1-14-1.7,30.26,30.26,0,0,0-15.2.6.82.82,0,0,1-.4-1.6,33.05,33.05,0,0,1,15.9-.6c8.1,1.5,14.9,2.5,22.1.6a.82.82,0,1,1,.4,1.6A33.69,33.69,0,0,1,89.3,100Z"/><path class="b" d="M86.1,135.2h0a.77.77,0,0,1-.8-.9,32.33,32.33,0,0,1,3.3-13c.6-1.1,1.1-2.2,1.7-3.4,3.2-6.3,6.6-12.7,6.8-19.9a.85.85,0,0,1,1.7.1c-.3,7.5-3.7,14.2-7,20.6-.6,1.1-1.2,2.2-1.7,3.3A30.51,30.51,0,0,0,87,134.3,1.06,1.06,0,0,1,86.1,135.2Z"/><path class="b" d="M128.7,121.4a.37.37,0,0,1-.3-.1c-6.2-2.4-12-6.9-17-13.2l-.5-.5a10.61,10.61,0,0,1-1.5-1.5,39.51,39.51,0,0,0-11.8-7.3,1,1,0,0,1-.5-1.1.76.76,0,0,1,1.1-.5,39.6,39.6,0,0,1,12.3,7.6l.1.1.1.1a5.35,5.35,0,0,0,1.3,1.3c.2.2.5.4.7.6l.1.1c4.9,6.1,10.4,10.4,16.3,12.7a1,1,0,0,1,.5,1.1A1.21,1.21,0,0,1,128.7,121.4Z"/><path class="b" d="M97.9,98.9a.76.76,0,0,1-.5-.2.93.93,0,0,1-.2-1.2,35.16,35.16,0,0,1,11.2-9.4l1.4-.6c7.1-3.2,13.7-6.3,18.2-12.4a.86.86,0,1,1,1.4,1c-4.7,6.4-11.9,9.7-18.9,12.9l-1.3.6a32.84,32.84,0,0,0-10.6,9A1.08,1.08,0,0,1,97.9,98.9Z"/><path class="b" d="M97.9,98.9a.75.75,0,0,1-.7-.4C93.6,93.2,91.7,86.8,91,78c-.7-4.8-2-10.9-5.6-15.7a.86.86,0,0,1,1.4-1c3.8,5.1,5.2,11.5,5.9,16.5v.1c.7,8.6,2.5,14.7,5.9,19.8a.83.83,0,0,1-.2,1.2Z"/><circle class="b" cx="109.7" cy="61.8" r="2.2"/><circle class="b" cx="97.9" cy="65.3" r="2.2"/><circle class="b" cx="66.5" cy="88" r="2.2"/><circle class="b" cx="78.6" cy="124.5" r="2.2"/><circle class="b" cx="117.1" cy="124.5" r="2.2"/><circle class="b" cx="129.2" cy="88" r="2.2"/><circle class="b" cx="86.1" cy="61.8" r="2.2"/><circle class="b" cx="67.1" cy="75.6" r="2.2"/><circle class="b" cx="128.7" cy="75.6" r="2.2"/><circle class="b" cx="59.9" cy="98.2" r="2.2"/><circle class="b" cx="67.1" cy="120.5" r="2.2"/><circle class="b" cx="85.9" cy="134.3" r="2.2"/><circle class="b" cx="109.7" cy="134.3" r="2.2"/><circle class="b" cx="128.7" cy="120.5" r="2.2"/><circle class="b" cx="135.9" cy="98.2" r="2.2"/></svg>